<svg width="20" height="16" viewBox="0 0 20 16" fill="none" xmlns="http://www.w3.org/2000/svg">
<path fill-rule="evenodd" clip-rule="evenodd" d="M16.9419 1.34C15.6473 0.714 14.263 0.259052 12.8157 0C12.638 0.332095 12.4304 0.77877 12.2872 1.1341C10.7487 0.894993 9.22445 0.894993 7.7143 1.1341C7.57116 0.77877 7.35879 0.332095 7.17947 0C5.73067 0.259052 4.3448 0.715672 3.05016 1.34331C0.438869 5.42136 -0.269009 9.39811 0.0849305 13.3184C1.81688 14.655 3.49534 15.467 5.14548 15.9984C5.55291 15.4189 5.91628 14.8028 6.22931 14.1536C5.63313 13.9195 5.06211 13.6306 4.52256 13.2952C4.6657 13.1856 4.80571 13.071 4.94098 12.9531C8.23183 14.5438 11.8074 14.5438 15.0589 12.9531C15.1958 13.071 15.3358 13.1856 15.4774 13.2952C14.9362 13.6322 14.3637 13.9211 13.7675 14.1553C14.0805 14.8028 14.4423 15.4205 14.8513 16C16.503 15.4687 18.183 14.6567 19.915 13.3184C20.3303 8.77378 19.2056 4.83355 16.9419 1.34ZM6.6779 10.9074C5.69002 10.9074 4.87988 9.95426 4.87988 8.79362C4.87988 7.63297 5.67272 6.67822 6.6779 6.67822C7.68311 6.67822 8.49322 7.6313 8.47592 8.79362C8.47748 9.95426 7.68311 10.9074 6.6779 10.9074ZM11.5244 8.79362C11.5244 9.95426 12.3346 10.9074 13.3224 10.9074C14.3276 10.9074 15.1205 9.95426 15.1205 8.79362C15.1378 7.6313 14.3276 6.67822 13.3224 6.67822C12.3172 6.67822 11.5244 7.63297 11.5244 8.79362Z" fill="white" fill-opacity="0.5"/>
</svg>
