<svg width="20" height="20" viewBox="0 0 20 20" fill="none" xmlns="http://www.w3.org/2000/svg">
<g opacity="0.5">
<path d="M10 20C4.48372 20 0 15.5163 0 10C0 4.48372 4.48372 0 10 0C15.5163 0 20 4.48372 20 10C20 15.5163 15.5163 20 10 20ZM10 1.39535C5.25581 1.39535 1.39535 5.25581 1.39535 10C1.39535 14.7442 5.25581 18.6047 10 18.6047C14.7442 18.6047 18.6047 14.7442 18.6047 10C18.6047 5.25581 14.7442 1.39535 10 1.39535Z" fill="white"/>
<path d="M7.20971 19.0692H6.27948C5.89809 19.0692 5.58181 18.7529 5.58181 18.3715C5.58181 17.9902 5.87948 17.6832 6.26088 17.6739C4.80041 12.6878 4.80041 7.31108 6.26088 2.32504C5.87948 2.31573 5.58181 2.00876 5.58181 1.62736C5.58181 1.24597 5.89809 0.929688 6.27948 0.929688H7.20971C7.43297 0.929688 7.64692 1.04132 7.77716 1.21806C7.90739 1.40411 7.9446 1.63666 7.87018 1.85062C6.12134 7.10643 6.12134 12.8925 7.87018 18.1576C7.9446 18.3715 7.90739 18.6041 7.77716 18.7902C7.64692 18.9576 7.43297 19.0692 7.20971 19.0692Z" fill="white"/>
<path d="M12.7907 19.07C12.7163 19.07 12.6418 19.0607 12.5674 19.0328C12.2046 18.9119 12 18.5119 12.1302 18.1491C13.8791 12.8933 13.8791 7.10724 12.1302 1.84212C12.0093 1.47933 12.2046 1.07933 12.5674 0.958403C12.9395 0.837473 13.3302 1.03282 13.4511 1.39561C15.3023 6.9398 15.3023 13.0421 13.4511 18.577C13.3581 18.884 13.0791 19.07 12.7907 19.07Z" fill="white"/>
<path d="M9.99946 14.8365C7.40411 14.8365 4.81806 14.4737 2.32504 13.7388C2.31573 14.1109 2.00876 14.4179 1.62736 14.4179C1.24597 14.4179 0.929688 14.1016 0.929688 13.7202V12.7899C0.929688 12.5667 1.04132 12.3527 1.21806 12.2225C1.40411 12.0923 1.63666 12.0551 1.85062 12.1295C7.10643 13.8783 12.9018 13.8783 18.1576 12.1295C18.3715 12.0551 18.6041 12.0923 18.7902 12.2225C18.9762 12.3527 19.0785 12.5667 19.0785 12.7899V13.7202C19.0785 14.1016 18.7622 14.4179 18.3809 14.4179C17.9995 14.4179 17.6925 14.1202 17.6832 13.7388C15.1809 14.4737 12.5948 14.8365 9.99946 14.8365Z" fill="white"/>
<path d="M18.372 7.90691C18.2976 7.90691 18.2232 7.89761 18.1488 7.8697C12.893 6.12087 7.09763 6.12087 1.84182 7.8697C1.46973 7.99063 1.07903 7.79528 0.958097 7.43249C0.846469 7.0604 1.04182 6.6697 1.40461 6.54877C6.94879 4.69761 13.0511 4.69761 18.586 6.54877C18.9488 6.6697 19.1534 7.0697 19.0232 7.43249C18.9395 7.72087 18.6604 7.90691 18.372 7.90691Z" fill="white"/>
</g>
</svg>
